<svg xmlns="http://www.w3.org/2000/svg" version="1.1" xmlns:xlink="http://www.w3.org/1999/xlink" xmlns:svgjs="http://svgjs.dev/svgjs" width="2000" height="1252" viewBox="0 0 2000 1252"><g transform="matrix(1,0,0,1,-1.2121212121212466,-2.01935483870966)"><svg viewBox="0 0 396 248" data-background-color="#111111" preserveAspectRatio="xMidYMid meet" height="1252" width="2000" xmlns="http://www.w3.org/2000/svg" xmlns:xlink="http://www.w3.org/1999/xlink"><g id="tight-bounds" transform="matrix(1,0,0,1,0.2400000000000091,0.4000000000000057)"><svg viewBox="0 0 395.52 247.2" height="247.2" width="395.52"><g><svg></svg></g><g><svg viewBox="0 0 395.52 247.2" height="247.2" width="395.52"><mask id="390188aa-922f-484b-ba8c-f270fa3e7560"><rect width="395.52" height="247.2" fill="white"></rect><g transform="matrix(1,0,0,1,0,101.50038314176246)" id="clone"><svg viewBox="0 0 395.52 44.19923371647509" height="44.19923371647509" width="395.52"><g><svg viewBox="0 0 395.52 44.19923371647509" height="44.19923371647509" width="395.52"><g><svg viewBox="0 0 395.52 44.19923371647509" height="44.19923371647509" width="395.52"><g><svg viewBox="0 0 395.52 44.19923371647509" height="44.19923371647509" width="395.52"><g id="SvgjsG2417"><svg viewBox="0 0 395.52 44.19923371647509" height="44.19923371647509" width="395.52" id="SvgjsSvg2416"><g><svg viewBox="0 0 395.52 44.19923371647509" height="44.19923371647509" width="395.52"><g transform="matrix(1,0,0,1,0,0)"><svg width="395.52" viewBox="1.2000000000000002 -40.5 470.77000000000004 53.5" height="44.19923371647509" data-palette-color="#7f46f0"><path d="M40.4-5L40.4 0 4.2 0 4.2-35 40.4-35 40.4-30 9.2-30 9.2-5 40.4-5ZM36.15-20L36.15-15 11.7-15 11.7-20 36.15-20ZM78.4-13.75L78.4-13.75Q78.4-10.9 77.35-8.43 76.3-5.95 74.42-4.05 72.55-2.15 70.07-1.07 67.6 0 64.75 0L64.75 0 53.5 0 53.5-5 64.75-5Q67.15-5.05 69.12-6.23 71.1-7.4 72.25-9.38 73.4-11.35 73.4-13.75L73.4-13.75Q73.4-16.15 72.25-18.15 71.1-20.15 69.12-21.33 67.15-22.5 64.75-22.5L64.75-22.5 51-22.5 51 10 46 10 46-27.5 64.75-27.5Q67.6-27.5 70.07-26.43 72.55-25.35 74.42-23.45 76.3-21.55 77.35-19.07 78.4-16.6 78.4-13.75ZM90.09-33.75L90.09-33.75Q90.09-32.2 89-31.1 87.9-30 86.34-30L86.34-30Q84.8-30 83.7-31.1 82.59-32.2 82.59-33.75L82.59-33.75Q82.59-35.3 83.7-36.4 84.8-37.5 86.34-37.5L86.34-37.5Q87.9-37.5 89-36.4 90.09-35.3 90.09-33.75ZM88.84-27.5L88.84 0 83.84 0 83.84-27.5 88.84-27.5ZM124.29-5L124.29 0 107.94 0Q105.09 0 102.62-1.07 100.14-2.15 98.27-4.05 96.39-5.95 95.34-8.43 94.29-10.9 94.29-13.75L94.29-13.75Q94.29-16.6 95.34-19.07 96.39-21.55 98.27-23.45 100.14-25.35 102.62-26.43 105.09-27.5 107.94-27.5L107.94-27.5 124.29-27.5 124.29-22.5 107.94-22.5Q105.54-22.5 103.59-21.3 101.64-20.1 100.47-18.13 99.29-16.15 99.29-13.75L99.29-13.75Q99.29-11.35 100.47-9.38 101.64-7.4 103.59-6.2 105.54-5 107.94-5L107.94-5 124.29-5ZM185.79-5L185.79 0 163.24 0Q159.59 0 156.64-1.35 153.69-2.7 151.56-5.1 149.44-7.5 148.29-10.68 147.14-13.85 147.14-17.5L147.14-17.5Q147.14-21.1 148.29-24.28 149.44-27.45 151.56-29.88 153.69-32.3 156.64-33.65 159.59-35 163.24-35L163.24-35 185.79-35 185.79-30 163.24-30Q159.79-30 157.31-28.33 154.84-26.65 153.49-23.8 152.14-20.95 152.14-17.5L152.14-17.5Q152.14-14.05 153.49-11.23 154.84-8.4 157.31-6.7 159.79-5 163.24-5L163.24-5 185.79-5ZM222.53-18.75L222.53 0 197.53 0Q195.13 0 193.13-1.18 191.13-2.35 189.96-4.33 188.78-6.3 188.78-8.75L188.78-8.75Q188.78-11.2 189.96-13.18 191.13-15.15 193.13-16.32 195.13-17.5 197.53-17.5L197.53-17.5 215.03-17.5 215.03-12.5 197.53-12.5Q195.98-12.5 194.88-11.4 193.78-10.3 193.78-8.75L193.78-8.75Q193.78-7.2 194.88-6.1 195.98-5 197.53-5L197.53-5 217.53-5 217.53-18.75Q217.53-20.3 216.44-21.4 215.33-22.5 213.78-22.5L213.78-22.5 193.78-22.5 193.78-27.5 213.78-27.5Q216.23-27.5 218.21-26.33 220.19-25.15 221.36-23.18 222.53-21.2 222.53-18.75L222.53-18.75ZM256.83-27.5L256.83-22.5 238.08-22.5Q236.53-22.5 235.43-21.4 234.33-20.3 234.33-18.75L234.33-18.75 234.33 0 229.33 0 229.33-18.75Q229.33-21.2 230.51-23.18 231.68-25.15 233.68-26.33 235.68-27.5 238.08-27.5L238.08-27.5 256.83-27.5ZM291.53-37.5L291.53 0 286.53 0 286.53-22.5 272.78-22.5Q270.38-22.5 268.43-21.33 266.48-20.15 265.31-18.15 264.13-16.15 264.13-13.75L264.13-13.75Q264.13-11.35 265.31-9.38 266.48-7.4 268.43-6.23 270.38-5.05 272.78-5L272.78-5 284.03-5 284.03 0 272.78 0Q269.93 0 267.46-1.07 264.98-2.15 263.11-4.05 261.23-5.95 260.18-8.43 259.13-10.9 259.13-13.75L259.13-13.75Q259.13-16.6 260.18-19.07 261.23-21.55 263.11-23.45 264.98-25.35 267.46-26.43 269.93-27.5 272.78-27.5L272.78-27.5 286.53-27.5 286.53-37.5 291.53-37.5ZM363.18-35L363.18-12.6Q363.18-9.15 361.48-6.28 359.78-3.4 356.93-1.7 354.08 0 350.58 0L350.58 0Q347.48 0 344.83-1.35 342.18-2.7 340.43-5L340.43-5Q338.73-2.7 336.08-1.35 333.43 0 330.33 0L330.33 0Q326.88 0 324-1.7 321.13-3.4 319.43-6.28 317.73-9.15 317.73-12.6L317.73-12.6 317.73-35 322.73-35 322.73-12.6Q322.73-10.5 323.75-8.78 324.78-7.05 326.5-6.03 328.23-5 330.33-5L330.33-5Q332.38-5 334.08-5.98 335.78-6.95 336.8-8.6 337.83-10.25 337.93-12.25L337.93-12.25 337.93-35 342.98-35 342.98-12.6Q342.98-10.5 344-8.78 345.03-7.05 346.75-6.03 348.48-5 350.58-5L350.58-5Q352.68-5 354.4-6.03 356.13-7.05 357.15-8.78 358.18-10.5 358.18-12.6L358.18-12.6 358.18-35 363.18-35ZM401.92-18.75L401.92 0 376.92 0Q374.52 0 372.52-1.18 370.52-2.35 369.35-4.33 368.17-6.3 368.17-8.75L368.17-8.75Q368.17-11.2 369.35-13.18 370.52-15.15 372.52-16.32 374.52-17.5 376.92-17.5L376.92-17.5 394.42-17.5 394.42-12.5 376.92-12.5Q375.37-12.5 374.27-11.4 373.17-10.3 373.17-8.75L373.17-8.75Q373.17-7.2 374.27-6.1 375.37-5 376.92-5L376.92-5 396.92-5 396.92-18.75Q396.92-20.3 395.82-21.4 394.72-22.5 393.17-22.5L393.17-22.5 373.17-22.5 373.17-27.5 393.17-27.5Q395.62-27.5 397.6-26.33 399.57-25.15 400.75-23.18 401.92-21.2 401.92-18.75L401.92-18.75ZM436.22-27.5L436.22-22.5 417.47-22.5Q415.92-22.5 414.82-21.4 413.72-20.3 413.72-18.75L413.72-18.75 413.72 0 408.72 0 408.72-18.75Q408.72-21.2 409.9-23.18 411.07-25.15 413.07-26.33 415.07-27.5 417.47-27.5L417.47-27.5 436.22-27.5ZM468.97-8.75L468.97-8.75Q468.97-6.3 467.79-4.33 466.62-2.35 464.64-1.18 462.67 0 460.22 0L460.22 0 438.97 0 438.97-5 460.22-5Q461.77-5 462.87-6.1 463.97-7.2 463.97-8.75L463.97-8.75Q463.97-10.3 462.87-11.4 461.77-12.5 460.22-12.5L460.22-12.5 446.47-12.5Q444.42-12.5 442.69-13.5 440.97-14.5 439.97-16.23 438.97-17.95 438.97-20L438.97-20Q438.97-22.1 439.97-23.8 440.97-25.5 442.69-26.5 444.42-27.5 446.47-27.5L446.47-27.5 466.47-27.5 466.47-22.5 446.47-22.5Q445.42-22.5 444.69-21.78 443.97-21.05 443.97-20L443.97-20Q443.97-18.95 444.69-18.23 445.42-17.5 446.47-17.5L446.47-17.5 460.22-17.5Q462.67-17.5 464.64-16.32 466.62-15.15 467.79-13.18 468.97-11.2 468.97-8.75Z" opacity="1" transform="matrix(1,0,0,1,0,0)" fill="black" class="wordmark-text-0" id="SvgjsPath2415" stroke-width="5" stroke="black" stroke-linejoin="round"></path></svg></g></svg></g></svg></g></svg></g><g></g></svg></g></svg></g></svg></g></mask><g mask="url(#390188aa-922f-484b-ba8c-f270fa3e7560)"><g><path d="M110.546 161.322v15.089h-109.244v-105.622h109.244v15.089h-94.155v75.444zM97.72 116.056v15.088h-73.785v-15.088zM239.858 161.322v15.089h-68.051c-7.343 0-13.982-1.358-19.917-4.074-5.935-2.716-11.035-6.488-15.301-11.316-4.285-4.828-7.585-10.442-9.898-16.84-2.314-6.378-3.47-13.238-3.47-20.581v0c0-7.243 1.157-14.063 3.47-20.461 2.314-6.378 5.613-12.011 9.898-16.899 4.265-4.869 9.365-8.661 15.301-11.377 5.935-2.716 12.574-4.074 19.917-4.074v0h68.051v15.089h-68.051c-6.941 0-12.896 1.68-17.865 5.039-4.989 3.38-8.842 7.937-11.558 13.671-2.716 5.734-4.074 12.071-4.074 19.012v0c0 6.941 1.358 13.248 4.074 18.922 2.716 5.694 6.569 10.25 11.558 13.67 4.969 3.42 10.924 5.13 17.865 5.13v0zM394.218 70.789v67.598c0 6.941-1.71 13.298-5.13 19.073-3.42 5.794-7.997 10.401-13.731 13.821-5.734 3.42-12.121 5.13-19.163 5.13v0c-6.237 0-12.021-1.358-17.352-4.074-5.331-2.716-9.758-6.388-13.279-11.015v0c-3.42 4.627-7.796 8.299-13.127 11.015-5.331 2.716-11.116 4.074-17.352 4.074v0c-6.941 0-13.298-1.71-19.073-5.13-5.794-3.42-10.401-8.027-13.821-13.821-3.42-5.774-5.13-12.132-5.13-19.073v0-67.598h15.088v67.598c0 4.225 1.036 8.068 3.109 11.528 2.052 3.481 4.818 6.247 8.299 8.299 3.46 2.072 7.303 3.108 11.528 3.108v0c4.124 0 7.897-0.986 11.316-2.957 3.42-1.952 6.166-4.587 8.239-7.907 2.052-3.32 3.179-6.991 3.38-11.015v0-68.654h15.24v67.598c0 4.225 1.036 8.068 3.108 11.528 2.052 3.481 4.818 6.247 8.299 8.299 3.46 2.072 7.303 3.108 11.528 3.108v0c4.225 0 8.078-1.036 11.558-3.108 3.46-2.052 6.227-4.818 8.299-8.299 2.052-3.46 3.078-7.303 3.078-11.528v0-67.598z" fill="#7f46f0" fill-rule="nonzero" stroke="none" stroke-width="1" stroke-linecap="butt" stroke-linejoin="miter" stroke-miterlimit="10" stroke-dasharray="" stroke-dashoffset="0" font-family="none" font-weight="none" font-size="none" text-anchor="none" style="mix-blend-mode: normal" data-fill-palette-color="tertiary"></path></g></g><g transform="matrix(1,0,0,1,0,101.50038314176246)"><svg viewBox="0 0 395.52 44.19923371647509" height="44.19923371647509" width="395.52"><g><svg viewBox="0 0 395.52 44.19923371647509" height="44.19923371647509" width="395.52"><g><svg viewBox="0 0 395.52 44.19923371647509" height="44.19923371647509" width="395.52"><g><svg viewBox="0 0 395.52 44.19923371647509" height="44.19923371647509" width="395.52"><g id="textblocktransform"><svg viewBox="0 0 395.52 44.19923371647509" height="44.19923371647509" width="395.52" id="textblock"><g><svg viewBox="0 0 395.52 44.19923371647509" height="44.19923371647509" width="395.52"><g transform="matrix(1,0,0,1,0,0)"><svg width="395.52" viewBox="1.2000000000000002 -40.5 470.77000000000004 53.5" height="44.19923371647509" data-palette-color="#7f46f0"><path d="M40.4-5L40.4 0 4.2 0 4.2-35 40.4-35 40.4-30 9.2-30 9.2-5 40.4-5ZM36.15-20L36.15-15 11.7-15 11.7-20 36.15-20ZM78.4-13.75L78.4-13.75Q78.4-10.9 77.35-8.43 76.3-5.95 74.42-4.05 72.55-2.15 70.07-1.07 67.6 0 64.75 0L64.75 0 53.5 0 53.5-5 64.75-5Q67.15-5.05 69.12-6.23 71.1-7.4 72.25-9.38 73.4-11.35 73.4-13.75L73.4-13.75Q73.4-16.15 72.25-18.15 71.1-20.15 69.12-21.33 67.15-22.5 64.75-22.5L64.75-22.5 51-22.5 51 10 46 10 46-27.5 64.75-27.5Q67.6-27.5 70.07-26.43 72.55-25.35 74.42-23.45 76.3-21.55 77.35-19.07 78.4-16.6 78.4-13.75ZM90.09-33.75L90.09-33.75Q90.09-32.2 89-31.1 87.9-30 86.34-30L86.34-30Q84.8-30 83.7-31.1 82.59-32.2 82.59-33.75L82.59-33.75Q82.59-35.3 83.7-36.4 84.8-37.5 86.34-37.5L86.34-37.5Q87.9-37.5 89-36.4 90.09-35.3 90.09-33.75ZM88.84-27.5L88.84 0 83.84 0 83.84-27.5 88.84-27.5ZM124.29-5L124.29 0 107.94 0Q105.09 0 102.62-1.07 100.14-2.15 98.27-4.05 96.39-5.95 95.34-8.43 94.29-10.9 94.29-13.75L94.29-13.75Q94.29-16.6 95.34-19.07 96.39-21.55 98.27-23.45 100.14-25.35 102.62-26.43 105.09-27.5 107.94-27.5L107.94-27.5 124.29-27.5 124.29-22.5 107.94-22.5Q105.54-22.5 103.59-21.3 101.64-20.1 100.47-18.13 99.29-16.15 99.29-13.75L99.29-13.75Q99.29-11.35 100.47-9.38 101.64-7.4 103.59-6.2 105.54-5 107.94-5L107.94-5 124.29-5ZM185.79-5L185.79 0 163.24 0Q159.59 0 156.64-1.35 153.69-2.7 151.56-5.1 149.44-7.5 148.29-10.68 147.14-13.85 147.14-17.5L147.14-17.5Q147.14-21.1 148.29-24.28 149.44-27.45 151.56-29.88 153.69-32.3 156.64-33.65 159.59-35 163.24-35L163.24-35 185.79-35 185.79-30 163.24-30Q159.79-30 157.31-28.33 154.84-26.65 153.49-23.8 152.14-20.95 152.14-17.5L152.14-17.5Q152.14-14.05 153.49-11.23 154.84-8.4 157.31-6.7 159.79-5 163.24-5L163.24-5 185.79-5ZM222.53-18.75L222.53 0 197.53 0Q195.13 0 193.13-1.18 191.13-2.35 189.96-4.33 188.78-6.3 188.78-8.75L188.78-8.75Q188.78-11.2 189.96-13.18 191.13-15.15 193.13-16.32 195.13-17.5 197.53-17.5L197.53-17.5 215.03-17.5 215.03-12.5 197.53-12.5Q195.98-12.5 194.88-11.4 193.78-10.3 193.78-8.75L193.78-8.75Q193.78-7.2 194.88-6.1 195.98-5 197.53-5L197.53-5 217.53-5 217.53-18.75Q217.53-20.3 216.44-21.4 215.33-22.5 213.78-22.5L213.78-22.5 193.78-22.5 193.78-27.5 213.78-27.5Q216.23-27.5 218.21-26.33 220.19-25.15 221.36-23.18 222.53-21.2 222.53-18.75L222.53-18.75ZM256.83-27.5L256.83-22.5 238.08-22.5Q236.53-22.5 235.43-21.4 234.33-20.3 234.33-18.75L234.33-18.75 234.33 0 229.33 0 229.33-18.75Q229.33-21.2 230.51-23.18 231.68-25.15 233.68-26.33 235.68-27.5 238.08-27.5L238.08-27.5 256.83-27.5ZM291.53-37.5L291.53 0 286.53 0 286.53-22.5 272.78-22.5Q270.38-22.5 268.43-21.33 266.48-20.15 265.31-18.15 264.13-16.15 264.13-13.75L264.13-13.75Q264.13-11.35 265.31-9.38 266.48-7.4 268.43-6.23 270.38-5.05 272.78-5L272.78-5 284.03-5 284.03 0 272.78 0Q269.93 0 267.46-1.07 264.98-2.15 263.11-4.05 261.23-5.95 260.18-8.43 259.13-10.9 259.13-13.75L259.13-13.75Q259.13-16.6 260.18-19.07 261.23-21.55 263.11-23.45 264.98-25.35 267.46-26.43 269.93-27.5 272.78-27.5L272.78-27.5 286.53-27.5 286.53-37.5 291.53-37.5ZM363.18-35L363.18-12.6Q363.18-9.15 361.48-6.28 359.78-3.4 356.93-1.7 354.08 0 350.58 0L350.58 0Q347.48 0 344.83-1.35 342.18-2.7 340.43-5L340.43-5Q338.73-2.7 336.08-1.35 333.43 0 330.33 0L330.33 0Q326.88 0 324-1.7 321.13-3.4 319.43-6.28 317.73-9.15 317.73-12.6L317.73-12.6 317.73-35 322.73-35 322.73-12.6Q322.73-10.5 323.75-8.78 324.78-7.05 326.5-6.03 328.23-5 330.33-5L330.33-5Q332.38-5 334.08-5.98 335.78-6.95 336.8-8.6 337.83-10.25 337.93-12.25L337.93-12.25 337.93-35 342.98-35 342.98-12.6Q342.98-10.5 344-8.78 345.03-7.05 346.75-6.03 348.48-5 350.58-5L350.58-5Q352.68-5 354.4-6.03 356.13-7.05 357.15-8.78 358.18-10.5 358.18-12.6L358.18-12.6 358.18-35 363.18-35ZM401.92-18.75L401.92 0 376.92 0Q374.52 0 372.52-1.18 370.52-2.35 369.35-4.33 368.17-6.3 368.17-8.75L368.17-8.75Q368.17-11.2 369.35-13.18 370.52-15.15 372.52-16.32 374.52-17.5 376.92-17.5L376.92-17.5 394.42-17.5 394.42-12.5 376.92-12.5Q375.37-12.5 374.27-11.4 373.17-10.3 373.17-8.75L373.17-8.75Q373.17-7.2 374.27-6.1 375.37-5 376.92-5L376.92-5 396.92-5 396.92-18.75Q396.92-20.3 395.82-21.4 394.72-22.5 393.17-22.5L393.17-22.5 373.17-22.5 373.17-27.5 393.17-27.5Q395.62-27.5 397.6-26.33 399.57-25.15 400.75-23.18 401.92-21.2 401.92-18.75L401.92-18.75ZM436.22-27.5L436.22-22.5 417.47-22.5Q415.92-22.5 414.82-21.4 413.72-20.3 413.72-18.75L413.72-18.75 413.72 0 408.72 0 408.72-18.75Q408.72-21.2 409.9-23.18 411.07-25.15 413.07-26.33 415.07-27.5 417.47-27.5L417.47-27.5 436.22-27.5ZM468.97-8.75L468.97-8.75Q468.97-6.3 467.79-4.33 466.62-2.35 464.64-1.18 462.67 0 460.22 0L460.22 0 438.97 0 438.97-5 460.22-5Q461.77-5 462.87-6.1 463.97-7.2 463.97-8.75L463.97-8.75Q463.97-10.3 462.87-11.4 461.77-12.5 460.22-12.5L460.22-12.5 446.47-12.5Q444.42-12.5 442.69-13.5 440.97-14.5 439.97-16.23 438.97-17.95 438.97-20L438.97-20Q438.97-22.1 439.97-23.8 440.97-25.5 442.69-26.5 444.42-27.5 446.47-27.5L446.47-27.5 466.47-27.5 466.47-22.5 446.47-22.5Q445.42-22.5 444.69-21.78 443.97-21.05 443.97-20L443.97-20Q443.97-18.95 444.69-18.23 445.42-17.5 446.47-17.5L446.47-17.5 460.22-17.5Q462.67-17.5 464.64-16.32 466.62-15.15 467.79-13.18 468.97-11.2 468.97-8.75Z" opacity="1" transform="matrix(1,0,0,1,0,0)" fill="#7f46f0" class="wordmark-text-0" data-fill-palette-color="primary" id="text-0"></path></svg></g></svg></g></svg></g></svg></g><g></g></svg></g></svg></g></svg></g></svg></g><defs></defs></svg><rect width="395.52" height="247.2" fill="none" stroke="none" visibility="hidden"></rect></g></svg></g></svg>